<?xml version="1.0" standalone="no"?>
<!DOCTYPE svg PUBLIC "-//W3C//DTD SVG 20010904//EN"
 "http://www.w3.org/TR/2001/REC-SVG-20010904/DTD/svg10.dtd">
<svg version="1.0" xmlns="http://www.w3.org/2000/svg"
 width="300.000000pt" height="124.000000pt" viewBox="0 0 300.000000 124.000000"
 preserveAspectRatio="xMidYMid meet">
<metadata>
Created by potrace 1.10, written by Peter Selinger 2001-2011
</metadata>
<g transform="translate(0.000000,124.000000) scale(0.100000,-0.100000)"
fill="#000000" stroke="none">
<path d="M1684 1196 l-28 -23 23 -38 c20 -34 21 -39 6 -61 -12 -19 -15 -61
-15 -228 0 -199 -3 -236 -21 -236 -14 0 -250 259 -317 348 -53 71 -112 132
-128 132 -35 0 -38 -28 -39 -310 l0 -278 -25 -27 c-58 -63 -132 -73 -206 -30
-63 37 -66 53 -63 361 3 252 2 267 -16 280 -24 18 -55 18 -81 0 -20 -14 -21
-21 -17 -303 5 -322 9 -351 71 -415 105 -111 290 -109 385 3 54 62 67 119 67
285 0 78 4 145 9 148 5 3 62 -56 127 -131 151 -174 206 -236 264 -297 72 -75
79 -70 214 147 20 32 42 57 48 55 7 -3 41 -52 77 -110 36 -59 77 -118 90 -132
31 -33 66 -33 86 -2 15 23 15 28 -9 75 -14 28 -60 105 -102 171 -47 75 -73
127 -70 137 4 8 27 48 52 87 150 236 162 259 126 249 -18 -4 -226 -325 -225
-347 0 -6 48 -89 107 -183 58 -95 106 -175 106 -178 0 -3 -9 -5 -19 -5 -15 0
-44 41 -113 155 -53 88 -99 154 -108 154 -9 0 -53 -62 -105 -148 l-91 -148
-69 81 c-282 326 -400 456 -411 454 -11 -2 -15 -43 -18 -193 -2 -119 -8 -203
-16 -225 -34 -93 -106 -143 -205 -143 -98 0 -167 39 -207 117 -18 35 -21 68
-28 310 -4 149 -9 279 -11 290 -3 15 3 19 34 20 37 1 38 0 31 -24 -5 -14 -8
-144 -9 -290 0 -281 3 -300 48 -321 12 -6 38 -19 57 -30 60 -33 147 -23 200
24 21 19 23 20 10 2 -14 -19 -14 -19 3 -6 48 37 52 62 55 320 3 165 0 247 -7
254 -6 6 -11 27 -11 47 l0 35 45 -50 c24 -27 43 -55 42 -62 -2 -13 94 -133
107 -133 5 0 2 8 -5 18 -13 15 -12 16 3 4 9 -8 15 -19 12 -26 -2 -6 8 -23 23
-36 l28 -25 -20 25 -20 25 22 -19 c13 -10 20 -22 18 -26 -3 -4 4 -19 15 -31
11 -13 19 -20 20 -15 0 5 7 3 15 -4 8 -7 13 -15 10 -19 -2 -4 14 -29 35 -55
22 -27 40 -45 40 -40 0 4 -8 17 -17 29 -10 12 10 -8 44 -44 58 -61 76 -92 36
-60 -10 8 -6 0 7 -18 14 -18 30 -32 37 -32 16 -1 29 22 15 27 -15 5 -16 92 -1
92 7 0 9 74 7 230 l-3 230 32 0 c26 0 36 -6 49 -31 9 -18 11 -28 4 -24 -15 9
-3 -14 48 -99 20 -32 38 -53 40 -46 5 15 45 -48 47 -75 2 -27 28 -26 30 1 2
23 41 84 55 84 12 0 71 97 74 122 5 44 27 66 75 73 42 6 44 8 26 21 -48 36
-104 1 -145 -91 -26 -57 -83 -135 -99 -135 -19 0 -74 69 -101 126 -17 35 -42
77 -56 93 -24 29 -24 32 -10 53 21 29 20 40 -4 66 -27 28 -52 28 -86 -2z m86
-14 c0 -2 -29 -51 -37 -62 -4 -4 -52 51 -53 60 0 3 20 5 45 5 25 0 45 -1 45
-3z"/>
<path d="M1744 926 c-3 -7 -2 -78 1 -157 4 -79 7 -179 8 -221 1 -48 6 -78 13
-78 5 0 20 19 33 43 21 39 21 41 2 18 -12 -13 -21 -21 -21 -17 0 14 62 105 70
103 5 -1 23 18 39 42 l30 45 -22 36 c-12 19 -44 72 -72 118 -48 79 -70 97 -81
68z m106 -186 c20 -38 15 -57 -21 -92 -24 -24 -35 -23 -43 5 -8 30 -8 162 1
170 7 8 33 -27 63 -83z"/>
<path d="M101 229 c-22 -18 -25 -18 -42 -3 -9 8 -26 14 -36 12 -15 -3 -18 -15
-21 -91 -3 -95 2 -108 53 -127 20 -8 35 -6 60 6 19 9 39 13 44 9 8 -4 11 25
11 89 0 53 3 96 8 95 4 0 31 -27 60 -60 l52 -59 0 60 c0 47 3 60 15 60 12 0
15 -17 15 -95 0 -52 4 -95 9 -95 5 0 12 43 16 95 4 52 11 95 15 95 5 0 12 -41
16 -90 5 -71 9 -88 19 -80 9 8 15 7 18 -2 3 -7 6 15 6 49 1 34 4 68 7 77 4 12
0 16 -15 16 -12 0 -21 6 -21 15 0 11 12 15 50 15 38 0 50 -4 50 -15 0 -8 -9
-15 -20 -15 -18 0 -19 -5 -13 -67 7 -81 13 -94 13 -30 0 40 3 47 19 47 24 0
33 -13 41 -60 6 -33 7 -33 11 17 2 28 2 49 0 47 -6 -6 -41 48 -41 64 0 22 18
13 37 -18 9 -17 20 -30 23 -30 3 0 14 13 23 30 10 17 25 30 33 30 19 0 18 -7
-8 -42 -13 -20 -22 -49 -24 -82 -3 -44 -2 -46 5 -15 4 19 20 52 36 73 24 32
26 40 17 61 -12 27 -32 31 -63 15 -14 -8 -25 -7 -41 5 -25 17 -157 21 -187 6
-10 -6 -23 -6 -31 -1 -10 6 -23 1 -42 -17 l-28 -27 -22 22 c-14 12 -35 20 -54
20 -17 -1 -35 2 -40 5 -5 3 -20 -4 -33 -14z m-55 -84 c6 -78 12 -90 43 -80 19
6 21 14 21 81 0 59 3 74 15 74 22 0 22 -152 -1 -174 -22 -23 -70 -20 -95 5
-17 17 -20 29 -15 58 3 20 6 53 6 74 0 67 21 36 26 -38z"/>
<path d="M985 239 c-4 -6 -19 -7 -36 -4 -25 6 -34 1 -60 -26 l-31 -33 -23 31
c-23 28 -29 30 -81 28 -66 -2 -77 -13 -69 -74 3 -24 5 -57 5 -72 0 -16 5 -29
10 -29 6 0 10 33 10 80 0 64 3 80 15 80 12 0 15 -17 15 -94 0 -66 4 -95 13
-99 8 -3 12 8 13 37 2 59 16 156 23 156 3 0 16 -21 28 -47 42 -91 44 -91 78
-19 17 36 32 65 36 66 3 0 11 -35 19 -77 21 -124 27 -127 35 -20 l7 97 29 0
c15 0 39 -4 53 -10 21 -8 26 -16 26 -44 0 -37 -20 -56 -59 -56 -18 0 -21 -6
-20 -37 1 -22 3 -30 6 -18 8 32 23 45 53 45 19 0 30 -7 38 -24 6 -14 21 -30
34 -37 21 -11 21 -9 -4 18 -39 41 -38 94 1 134 41 40 91 40 132 0 63 -63 25
-159 -65 -163 l-41 -1 38 -4 c27 -3 46 2 68 18 26 18 33 19 40 8 6 -9 9 0 9
29 0 39 2 42 28 43 23 2 24 2 5 6 -20 4 -23 11 -23 49 l0 44 39 0 c48 0 71
-20 71 -62 0 -21 -6 -31 -20 -35 -25 -7 -25 -9 5 -45 l25 -29 -3 37 c-1 22 3
39 11 41 8 3 12 -8 12 -36 0 -22 5 -43 10 -46 6 -4 10 21 10 68 0 67 -2 75
-21 80 -37 10 -10 27 42 27 37 0 49 -4 49 -15 0 -9 -9 -15 -21 -15 -20 0 -21
-4 -15 -52 3 -29 6 -63 6 -76 0 -13 4 -21 9 -17 5 3 12 1 15 -4 9 -14 66 -32
66 -20 0 5 -8 9 -18 9 -23 0 -56 35 -47 49 3 6 1 11 -4 11 -6 0 -11 9 -11 20
0 25 18 26 27 3 11 -28 41 -56 52 -48 18 11 12 30 -19 60 -45 43 -36 95 16 95
25 0 49 -24 39 -40 -5 -8 -12 -7 -24 4 -11 10 -21 12 -31 5 -12 -8 -7 -16 28
-47 48 -42 54 -70 20 -102 -12 -11 -17 -20 -11 -20 17 0 43 35 43 58 0 12 -5
33 -12 47 -9 19 -9 28 0 37 18 18 14 45 -9 67 -19 18 -35 20 -173 19 -108 0
-156 -4 -170 -14 -16 -11 -24 -11 -47 2 -37 19 -99 18 -128 -2 -22 -16 -25
-16 -51 0 -31 18 -105 22 -115 5z"/>
<path d="M2005 230 c-16 -18 -17 -28 -8 -102 l9 -83 8 88 8 87 49 0 c37 0 49
-4 49 -15 0 -11 -11 -15 -40 -15 -33 0 -40 -3 -40 -19 0 -16 8 -20 42 -23 58
-4 63 -28 6 -28 -43 0 -44 -1 -40 -27 3 -26 7 -28 49 -28 41 1 46 4 65 37 l21
36 -22 30 c-11 17 -21 35 -21 41 0 21 21 11 38 -19 9 -16 19 -30 22 -30 3 0
14 13 23 30 10 17 25 30 33 30 11 0 9 -10 -11 -44 l-26 -45 25 -40 c15 -22 26
-45 26 -51 0 -5 3 -10 8 -10 4 0 7 12 8 28 0 15 1 57 2 95 l2 67 40 0 c49 0
84 -30 75 -63 -9 -29 -33 -47 -62 -47 -19 0 -23 -5 -23 -32 l0 -33 13 25 c9
17 22 26 45 28 26 3 34 -1 42 -22 20 -55 108 -77 163 -41 13 8 32 13 41 9 14
-5 16 5 16 85 l0 91 40 0 c39 0 80 -26 80 -51 0 -20 -21 -49 -35 -49 -21 0
-19 -14 6 -36 12 -10 25 -28 30 -39 8 -20 8 -20 8 0 1 12 -4 26 -10 32 -13 13
-5 43 11 43 5 0 10 -18 10 -39 0 -22 5 -43 10 -46 6 -4 10 18 10 59 0 35 3 71
6 80 4 12 0 16 -15 16 -12 0 -21 6 -21 15 0 11 12 15 50 15 38 0 50 -4 50 -15
0 -9 -9 -15 -21 -15 -20 0 -21 -4 -15 -46 3 -26 6 -59 6 -73 0 -20 8 -30 33
-41 40 -17 71 -15 102 7 28 21 32 54 9 89 -15 23 -15 26 0 43 21 23 20 34 -6
58 -21 19 -35 21 -177 21 -113 0 -160 -3 -175 -13 -18 -12 -24 -11 -40 1 -26
19 -90 18 -131 -2 -31 -14 -36 -14 -58 1 -20 13 -41 15 -94 11 -37 -2 -78 -8
-91 -12 -12 -3 -28 -2 -35 4 -6 5 -44 10 -83 11 -59 1 -73 -2 -89 -19z m558
-22 c47 -25 66 -82 42 -128 -19 -37 -43 -50 -90 -50 -45 0 -95 45 -95 85 0 32
24 81 47 94 24 14 69 14 96 -1z m401 -7 c23 -26 2 -39 -24 -16 -18 17 -20 17
-26 1 -5 -13 4 -26 30 -47 60 -50 45 -114 -25 -107 -40 4 -72 44 -44 54 11 5
21 1 27 -9 5 -10 15 -17 23 -17 29 0 26 23 -9 59 -37 38 -45 68 -24 89 18 18
53 15 72 -7z"/>
<path d="M2493 190 c-23 -10 -43 -39 -43 -65 0 -22 45 -65 68 -65 33 0 63 32
64 68 2 50 -42 80 -89 62z m49 -47 c22 -20 23 -36 3 -53 -18 -15 -61 -6 -69
15 -5 14 25 55 41 55 3 0 15 -7 25 -17z"/>
<path d="M1780 220 c-15 -15 -20 -32 -19 -63 1 -23 -1 -53 -5 -67 -6 -23 -6
-23 9 3 11 19 22 27 32 23 8 -3 17 -6 20 -6 3 0 0 -7 -7 -15 -13 -16 -6 -35
15 -35 27 0 28 23 1 47 -15 12 -24 23 -20 23 5 0 3 5 -4 12 -19 19 -14 56 8
63 48 15 81 -30 48 -64 -11 -10 -9 -15 5 -26 11 -7 24 -12 31 -9 19 7 4 104
-19 120 -27 20 -72 17 -95 -6z"/>
<path d="M1176 179 c-15 -12 -26 -30 -26 -45 0 -29 41 -74 68 -74 28 0 62 37
62 68 0 33 -8 45 -37 61 -30 15 -36 14 -67 -10z m66 -36 c24 -21 23 -38 -4
-57 -42 -30 -87 24 -48 56 27 22 29 22 52 1z"/>
<path d="M1010 171 c0 -10 -3 -28 -6 -38 -3 -10 -2 -14 3 -8 4 6 22 15 38 20
41 14 39 39 -2 43 -27 3 -33 0 -33 -17z"/>
<path d="M1360 165 c0 -20 5 -25 24 -25 26 0 51 24 41 40 -3 5 -19 10 -36 10
-24 0 -29 -4 -29 -25z"/>
<path d="M2310 178 c0 -28 17 -41 45 -34 38 10 30 40 -13 44 -21 2 -32 -1 -32
-10z"/>
<path d="M2668 165 c4 -26 25 -32 51 -16 23 14 5 41 -27 41 -26 0 -29 -3 -24
-25z"/>
<path d="M200 107 c0 -56 13 -76 23 -37 5 20 7 19 37 -10 38 -37 49 -39 20 -3
-11 16 -34 46 -50 67 l-30 39 0 -56z"/>
<path d="M801 124 c-1 -12 -4 -34 -7 -50 -5 -26 -3 -29 20 -29 30 0 31 6 6 60
-14 29 -19 34 -19 19z"/>
<path d="M893 86 l-20 -55 23 16 c13 8 25 11 25 7 1 -5 5 7 8 26 15 76 -9 80
-36 6z"/>
<path d="M2670 75 c0 -32 4 -41 18 -42 9 -1 26 -3 37 -6 11 -2 16 -2 10 0 -5
2 -22 23 -37 46 l-28 42 0 -40z"/>
<path d="M1370 74 c0 -26 5 -33 25 -36 26 -5 24 4 -9 47 -15 19 -15 19 -16
-11z"/>
<path d="M2182 65 c-16 -34 -15 -40 3 -25 12 10 18 10 30 0 8 -7 15 -10 15 -7
0 12 -24 57 -30 57 -4 0 -12 -11 -18 -25z"/>
<path d="M1860 40 c-8 -5 -31 -10 -50 -11 -26 -1 -29 -3 -11 -6 31 -6 91 5 91
17 0 13 -11 12 -30 0z"/>
<path d="M2047 23 c18 -2 50 -2 70 0 21 2 7 4 -32 4 -38 0 -55 -2 -38 -4z"/>
</g>
</svg>
