<?xml version="1.0" standalone="no"?>
<!DOCTYPE svg PUBLIC "-//W3C//DTD SVG 20010904//EN"
 "http://www.w3.org/TR/2001/REC-SVG-20010904/DTD/svg10.dtd">
<svg version="1.0" xmlns="http://www.w3.org/2000/svg"
 width="300.000000pt" height="300.000000pt" viewBox="0 0 300.000000 300.000000"
 preserveAspectRatio="xMidYMid meet">
<metadata>
Created by potrace 1.10, written by Peter Selinger 2001-2011
</metadata>
<g transform="translate(0.000000,300.000000) scale(0.100000,-0.100000)"
fill="#000000" stroke="none">
<path d="M1635 1949 c-16 -17 -17 -24 -7 -51 7 -20 8 -36 2 -43 -5 -6 -11 -79
-12 -161 -2 -111 -6 -149 -15 -149 -11 0 -135 135 -256 280 -21 25 -47 45 -56
45 -39 0 -43 -22 -42 -225 l2 -196 -30 -29 c-42 -42 -100 -42 -143 0 l-30 30
3 199 c3 217 0 231 -51 231 -51 0 -54 -13 -51 -233 2 -231 12 -278 66 -326 19
-17 53 -35 75 -42 40 -12 45 -29 8 -29 -12 0 -30 -7 -39 -16 -17 -15 -20 -15
-43 0 -29 19 -87 21 -104 4 -9 -9 -17 -9 -34 0 -13 7 -34 13 -48 13 -14 1 -65
2 -114 4 -65 3 -95 0 -109 -10 -12 -9 -26 -11 -36 -6 -29 15 -80 21 -87 10 -4
-6 -20 -8 -39 -5 -45 9 -59 -11 -51 -70 3 -24 10 -54 16 -64 14 -26 54 -35 90
-20 24 10 30 19 30 41 0 36 16 38 24 3 4 -15 10 -24 13 -20 4 3 17 -1 30 -9
31 -21 29 -11 -8 35 -18 23 -37 36 -45 33 -10 -4 -14 3 -14 26 0 17 2 31 5 31
2 0 22 -19 44 -42 l40 -43 1 43 c0 23 5 42 10 42 6 0 10 -30 10 -70 0 -40 4
-70 10 -70 5 0 9 3 9 8 -1 4 -1 35 0 70 1 83 21 81 21 -3 0 -51 3 -65 15 -65
10 0 15 10 15 33 0 17 3 42 6 55 5 16 2 22 -10 22 -9 0 -16 5 -16 10 0 6 22
10 49 10 39 0 51 -4 63 -22 l15 -22 12 22 c6 12 19 22 27 22 13 0 12 -6 -5
-34 -12 -18 -20 -46 -20 -62 1 -21 3 -24 6 -9 8 32 45 77 54 68 5 -5 13 -29
18 -54 9 -43 9 -43 10 24 1 52 4 67 16 67 12 0 15 -15 16 -72 l1 -73 14 69 c7
38 16 71 18 74 3 2 10 -8 16 -23 6 -15 17 -36 25 -47 13 -20 15 -19 36 25 12
25 26 44 30 42 3 -3 10 -35 14 -72 6 -53 10 -63 16 -43 4 14 7 47 8 73 l1 48
38 -3 c30 -2 38 -7 40 -26 4 -28 -14 -52 -39 -52 -14 0 -19 -7 -19 -27 l0 -27
16 22 c20 29 38 28 62 -3 11 -14 23 -25 27 -25 3 0 -3 12 -15 27 -37 47 -4
113 56 113 23 0 38 -7 53 -26 27 -34 26 -54 -1 -89 l-21 -27 24 7 c32 10 31 6
30 74 l0 61 33 0 c52 0 78 -46 39 -69 -16 -10 -15 -13 12 -38 l30 -27 5 55 c4
38 1 55 -7 57 -27 7 -11 22 22 22 19 0 35 -4 35 -10 0 -5 -6 -10 -12 -10 -17
0 -11 -102 6 -112 20 -14 26 -8 14 12 -16 25 -5 35 21 19 32 -21 37 -1 7 30
-35 37 -32 66 8 66 16 0 31 -6 34 -13 3 -9 -3 -11 -22 -6 -34 8 -33 -2 5 -37
22 -21 29 -24 28 -11 -2 9 1 27 5 40 6 17 3 29 -9 43 -16 17 -32 19 -199 18
-108 -1 -186 -6 -194 -12 -9 -7 -18 -6 -29 6 -14 14 -12 17 23 35 87 44 114
101 114 236 0 52 4 97 9 100 5 3 71 -64 146 -149 75 -86 145 -160 155 -165 31
-16 50 -1 107 87 29 46 58 81 63 78 5 -3 23 -31 41 -62 42 -73 86 -123 109
-123 11 0 26 10 34 22 19 27 11 49 -68 175 -31 50 -56 95 -56 99 0 4 32 61 72
127 74 123 77 135 35 161 -32 20 -70 -5 -107 -73 -57 -105 -78 -105 -131 0
-16 32 -34 61 -40 64 -6 5 -8 20 -5 40 5 27 3 36 -16 49 -30 21 -41 20 -63 -5z
m65 -16 c0 -5 -8 -17 -16 -28 -15 -20 -15 -20 -30 -1 -21 29 -18 36 16 36 17
0 30 -3 30 -7z m-676 -105 c-11 -33 -17 -239 -9 -336 7 -79 8 -83 42 -109 24
-18 50 -28 86 -31 46 -3 57 0 94 27 30 22 44 40 48 63 9 45 0 357 -10 387 -14
40 15 20 51 -35 18 -27 53 -71 78 -99 25 -27 65 -73 89 -101 24 -28 63 -68 86
-89 22 -20 38 -41 35 -47 -6 -10 14 -38 28 -38 5 0 6 16 2 35 -3 19 -3 43 1
52 4 10 7 91 8 181 1 161 1 162 24 162 16 0 24 -7 29 -27 8 -33 62 -123 75
-123 5 0 16 -15 25 -32 16 -30 18 -31 28 -14 6 10 25 34 42 53 18 18 42 58 54
88 21 52 24 55 57 55 35 0 35 0 15 -17 -11 -10 -52 -69 -91 -131 l-71 -114 80
-129 c44 -70 80 -131 80 -134 0 -4 -7 -5 -16 -3 -8 2 -45 52 -82 112 -37 60
-72 109 -77 109 -9 0 -127 -178 -138 -208 -2 -5 -17 6 -33 25 -135 160 -309
356 -319 358 -9 2 -14 -36 -17 -146 -4 -166 -15 -197 -78 -239 -64 -44 -177
-24 -224 40 -19 26 -21 47 -26 235 -3 114 -9 215 -14 225 -7 14 -3 17 24 17
29 0 32 -2 24 -22z m-584 -653 c0 -47 3 -55 19 -55 23 0 31 19 31 71 0 21 5
39 10 39 13 0 13 -96 0 -121 -13 -24 -52 -25 -73 -1 -13 14 -15 30 -10 70 8
69 23 67 23 -3z"/>
<path d="M1687 1754 c-11 -11 -8 -213 3 -234 7 -12 7 -34 1 -60 -5 -22 -5 -42
-1 -45 12 -7 40 34 34 50 -3 7 8 25 24 41 15 16 36 40 45 55 16 24 16 27 -29
100 -52 84 -67 102 -77 93z m63 -144 c8 -14 8 -26 0 -40 -15 -28 -30 -16 -30
26 0 38 14 44 30 14z"/>
<path d="M1712 1244 c-17 -12 -22 -25 -22 -61 0 -37 3 -43 13 -34 16 13 28 5
20 -15 -3 -9 2 -14 16 -14 27 0 26 6 -4 42 -30 35 -31 44 -6 57 13 7 24 6 37
-3 15 -12 16 -16 5 -30 -11 -12 -11 -19 -1 -30 6 -8 17 -13 24 -10 19 7 3 84
-20 101 -23 17 -35 16 -62 -3z"/>
<path d="M1864 1239 c-16 -18 -16 -23 -2 -82 l16 -62 1 68 1 67 40 0 c22 0 40
-4 40 -10 0 -5 -13 -10 -30 -10 -20 0 -30 -5 -30 -15 0 -10 10 -15 30 -15 18
0 30 -5 30 -13 0 -9 -10 -12 -30 -9 -25 4 -30 1 -30 -16 0 -32 59 -35 83 -4
10 12 24 19 30 15 6 -3 -2 10 -18 31 -15 20 -25 40 -21 44 4 4 15 -4 25 -17
l17 -23 16 24 c9 12 19 20 23 16 4 -4 0 -19 -9 -33 -16 -24 -16 -27 8 -68 l26
-42 0 73 0 72 34 0 c18 0 39 -7 46 -15 18 -22 2 -55 -31 -62 -23 -4 -29 -11
-28 -32 0 -26 0 -26 11 -3 15 30 41 28 76 -8 33 -32 57 -37 108 -18 34 12 44
36 44 104 0 29 3 34 24 34 13 0 31 -3 40 -6 21 -8 20 -51 -1 -63 -17 -9 -16
-12 9 -37 15 -16 29 -26 32 -23 2 2 7 28 11 57 6 44 4 52 -9 52 -9 0 -16 5
-16 10 0 6 18 10 40 10 22 0 40 -4 40 -10 0 -5 -7 -10 -15 -10 -11 0 -15 -13
-15 -53 0 -48 3 -55 25 -65 63 -29 93 -3 91 79 -2 90 -1 90 -205 88 -97 -1
-184 -6 -194 -11 -11 -6 -23 -6 -30 0 -7 5 -73 10 -149 10 -123 1 -138 -1
-154 -19z m436 -29 c61 -61 -27 -154 -98 -104 -26 18 -30 69 -6 102 20 29 76
30 104 2z m278 2 c3 -9 -3 -11 -22 -6 -35 8 -33 -7 4 -34 31 -24 38 -50 18
-70 -16 -16 -53 -15 -68 3 -17 21 -3 37 20 23 32 -20 35 0 6 31 -35 37 -29 74
12 69 14 -2 27 -9 30 -16z"/>
<path d="M2210 1195 c-15 -18 -5 -64 15 -72 45 -17 87 26 65 67 -13 24 -61 27
-80 5z m55 -35 c11 -18 -5 -31 -26 -20 -11 6 -17 15 -14 21 8 12 32 12 40 -1z"/>
<path d="M753 1213 c-9 -3 -13 -24 -12 -61 1 -42 3 -49 8 -28 8 39 27 43 39 9
l10 -28 1 28 c1 23 -24 89 -32 86 -1 0 -8 -3 -14 -6z"/>
<path d="M1150 1195 c0 -8 9 -15 20 -15 11 0 20 7 20 15 0 8 -9 15 -20 15 -11
0 -20 -7 -20 -15z"/>
<path d="M1262 1198 c-28 -28 -7 -78 33 -78 12 0 26 5 33 12 7 7 12 21 12 33
0 12 -5 26 -12 33 -7 7 -21 12 -33 12 -12 0 -26 -5 -33 -12z m52 -37 c9 -15
-23 -36 -36 -23 -5 5 -7 15 -4 21 9 13 33 14 40 2z"/>
<path d="M1400 1196 c0 -11 9 -16 26 -16 31 0 28 23 -4 28 -15 2 -22 -2 -22
-12z"/>
<path d="M2100 1191 c0 -16 4 -19 21 -13 28 11 29 26 2 30 -18 3 -23 -2 -23
-17z"/>
<path d="M2360 1191 c0 -14 5 -18 20 -14 11 3 20 12 20 19 0 8 -9 14 -20 14
-13 0 -20 -7 -20 -19z"/>
<path d="M989 1165 c-11 -11 4 -65 18 -65 10 0 12 6 7 23 -9 32 -19 48 -25 42z"/>
<path d="M1061 1138 c-14 -39 -14 -38 3 -38 14 0 28 58 15 65 -4 3 -12 -9 -18
-27z"/>
<path d="M2360 1123 c0 -27 4 -33 20 -33 17 0 19 3 11 18 -27 46 -31 48 -31
15z"/>
<path d="M2003 1117 c-9 -19 -7 -22 13 -22 27 0 29 3 10 27 -12 16 -14 16 -23
-5z"/>
</g>
</svg>
